<svg width="796" height="219" viewBox="0 0 796 219" fill="none" xmlns="http://www.w3.org/2000/svg">
<path d="M85.3442 108.727C85.3442 123.051 83.78 134.412 80.6517 142.809C77.688 151.206 73.9835 157.545 69.538 161.826C65.0924 165.942 60.4823 168.576 55.7075 169.729C50.9327 170.881 46.8165 171.458 43.3589 171.458C36.4436 171.458 30.3517 169.893 25.0829 166.765C19.8142 163.637 15.3687 159.274 11.7464 153.676C8.12415 148.078 5.40745 141.409 3.59632 133.671C1.78519 125.768 0.879625 117.206 0.879625 107.986C0.879625 98.7654 1.78519 90.286 3.59632 82.5476C5.5721 74.8091 8.37112 68.1408 11.9934 62.5428C15.7803 56.9447 20.2258 52.5816 25.3299 49.4533C30.5986 46.3249 36.6083 44.7608 43.3589 44.7608C50.6034 44.7608 57.0247 46.6542 62.6227 50.4411V0.552717H85.5912L85.3442 108.727ZM62.8697 107.986C62.8697 102.223 62.4581 96.8719 61.6348 91.9325C60.8116 86.8284 59.5767 82.4652 57.9302 78.843C56.2838 75.0561 54.2257 72.0924 51.7559 69.952C49.2862 67.8115 46.4872 66.7413 43.3589 66.7413C40.0659 66.7413 37.1846 67.8115 34.7148 69.952C32.2451 72.0924 30.187 75.0561 28.5405 78.843C26.894 82.4652 25.6592 86.8284 24.8359 91.9325C24.1774 96.8719 23.8481 102.223 23.8481 107.986C23.8481 113.913 24.1774 119.429 24.8359 124.533C25.6592 129.472 26.894 133.835 28.5405 137.622C30.187 141.409 32.2451 144.373 34.7148 146.513C37.1846 148.654 40.0659 149.724 43.3589 149.724C49.7802 149.724 54.6373 146.431 57.9302 139.845C61.2232 133.259 62.8697 122.639 62.8697 107.986ZM97.6986 124.533C97.6986 123.71 97.6163 123.051 97.4516 122.557C97.4516 121.898 97.4516 121.158 97.4516 120.334V115.889C97.287 112.925 97.1223 110.044 96.9577 107.245C96.9577 104.446 96.9577 101.647 96.9577 98.8477C96.9577 91.2739 97.3693 84.194 98.1925 77.6081C99.1804 70.8575 101.074 65.0948 103.873 60.32C106.837 55.5452 110.953 51.7583 116.222 48.9593C121.49 46.1603 128.488 44.7608 137.214 44.7608C141.166 44.7608 145.2 45.5017 149.316 46.9835C153.432 48.4654 157.137 50.7704 160.43 53.8988C163.723 57.0271 166.439 60.9786 168.58 65.7534C170.72 70.5282 171.873 76.2086 172.037 82.7945V84.2764C172.037 93.1674 170.391 100.33 167.098 105.763C163.805 111.032 159.771 115.148 154.996 118.112C150.221 121.075 145.035 123.051 139.437 124.039C133.839 125.027 128.735 125.521 124.125 125.521H120.667C121.655 140.998 126.677 148.736 135.732 148.736C138.531 148.736 141.577 147.254 144.87 144.291C148.163 141.327 151.621 137.211 155.243 131.942L171.79 147.007C167.18 154.417 161.5 160.262 154.749 164.542C148.163 168.659 141.907 170.717 135.979 170.717C124.125 170.717 114.822 167.012 108.071 159.603C101.485 152.194 98.0279 140.504 97.6986 124.533ZM122.396 103.54C125.359 103.54 128.323 103.293 131.287 102.799C134.415 102.141 137.214 101.07 139.684 99.5886C142.318 98.1068 144.459 96.131 146.105 93.6613C147.916 91.1916 148.904 87.9809 149.069 84.0294V83.2885C148.74 77.5258 147.258 73.3272 144.623 70.6929C141.989 68.0585 139.437 66.7413 136.967 66.7413C133.18 66.7413 130.134 67.6469 127.829 69.458C125.689 71.1045 124.042 73.3272 122.89 76.1263C121.737 78.7606 120.996 81.8066 120.667 85.2643C120.338 88.7219 120.173 92.1795 120.173 95.6371V103.54H122.396ZM228.532 168V91.4386C228.532 88.6395 228.368 85.7582 228.038 82.7945C227.874 79.8309 227.38 77.1965 226.556 74.8914C225.898 72.4217 224.828 70.4459 223.346 68.9641C222.029 67.4822 220.135 66.7413 217.665 66.7413C215.031 66.7413 212.891 67.5646 211.244 69.211C209.762 70.6929 208.61 72.6687 207.787 75.1384C206.963 77.6081 206.387 80.3248 206.058 83.2885C205.893 86.0875 205.811 88.8042 205.811 91.4386V168H182.842V91.4386C182.842 86.4991 183.172 81.3127 183.83 75.8793C184.653 70.2813 186.218 65.2595 188.523 60.814C190.992 56.2038 194.532 52.4169 199.142 49.4533C203.753 46.3249 209.927 44.7608 217.665 44.7608C222.934 44.7608 227.38 45.5017 231.002 46.9835C234.624 48.4654 237.67 50.6058 240.14 53.4048C242.61 50.6058 245.656 48.4654 249.278 46.9835C252.9 45.5017 257.346 44.7608 262.614 44.7608C270.353 44.7608 276.527 46.3249 281.137 49.4533C285.747 52.4169 289.205 56.2038 291.51 60.814C293.98 65.2595 295.544 70.2813 296.203 75.8793C297.026 81.3127 297.438 86.4991 297.438 91.4386V168H274.469V91.4386C274.469 88.8042 274.304 86.0875 273.975 83.2885C273.81 80.3248 273.317 77.6081 272.493 75.1384C271.67 72.6687 270.435 70.6929 268.789 69.211C267.307 67.5646 265.249 66.7413 262.614 66.7413C260.309 66.7413 258.416 67.4822 256.934 68.9641C255.452 70.4459 254.3 72.4217 253.476 74.8914C252.818 77.1965 252.324 79.8309 251.995 82.7945C251.83 85.7582 251.748 88.6395 251.748 91.4386L251.501 168H228.532ZM394.411 107.986C394.411 117.206 393.423 125.768 391.447 133.671C389.471 141.409 386.59 148.078 382.803 153.676C379.016 159.274 374.406 163.637 368.973 166.765C363.704 169.893 357.777 171.458 351.191 171.458C344.605 171.458 338.595 169.893 333.162 166.765C327.893 163.637 323.365 159.274 319.578 153.676C315.956 148.078 313.157 141.409 311.181 133.671C309.205 125.768 308.217 117.206 308.217 107.986C308.217 98.7654 309.123 90.286 310.934 82.5476C312.91 74.8091 315.709 68.1408 319.331 62.5428C323.118 56.9447 327.646 52.5816 332.915 49.4533C338.183 46.3249 344.275 44.7608 351.191 44.7608C357.777 44.7608 363.704 46.3249 368.973 49.4533C374.406 52.5816 379.016 56.9447 382.803 62.5428C386.59 68.1408 389.471 74.8091 391.447 82.5476C393.423 90.286 394.411 98.7654 394.411 107.986ZM371.195 107.986C371.195 102.058 370.784 96.625 369.961 91.6855C369.137 86.5814 367.82 82.2183 366.009 78.596C364.363 74.8091 362.304 71.8454 359.835 69.705C357.365 67.5646 354.484 66.4943 351.191 66.4943C347.898 66.4943 344.934 67.5646 342.3 69.705C339.83 71.8454 337.772 74.8091 336.125 78.596C334.479 82.2183 333.244 86.5814 332.421 91.6855C331.598 96.7896 331.186 102.223 331.186 107.986C331.186 113.748 331.598 119.182 332.421 124.286C333.244 129.39 334.479 133.835 336.125 137.622C337.772 141.245 339.83 144.126 342.3 146.266C344.934 148.407 347.898 149.477 351.191 149.477C354.484 149.477 357.365 148.407 359.835 146.266C362.304 144.126 364.363 141.245 366.009 137.622C367.82 133.835 369.137 129.39 369.961 124.286C370.784 119.182 371.195 113.748 371.195 107.986ZM480.047 148.489C470.826 163.801 459.466 171.458 445.964 171.458C439.214 171.458 433.204 169.893 427.935 166.765C422.831 163.637 418.386 159.274 414.599 153.676C410.977 148.078 408.178 141.409 406.202 133.671C404.391 125.768 403.485 117.206 403.485 107.986C403.485 98.7654 404.391 90.286 406.202 82.5476C408.013 74.8091 410.73 68.1408 414.352 62.5428C417.974 56.9447 422.42 52.5816 427.688 49.4533C432.957 46.3249 439.049 44.7608 445.964 44.7608C452.88 44.7608 459.219 46.7366 464.981 50.6881C470.744 54.475 475.683 60.0731 479.8 67.4822L462.265 83.0415C459.466 77.2788 456.584 73.0803 453.621 70.4459C450.822 67.8115 448.269 66.4943 445.964 66.4943C442.671 66.4943 439.79 67.5646 437.32 69.705C434.851 71.8454 432.793 74.8091 431.146 78.596C429.5 82.2183 428.265 86.5814 427.441 91.6855C426.783 96.7896 426.454 102.223 426.454 107.986C426.454 113.748 426.783 119.182 427.441 124.286C428.265 129.39 429.5 133.835 431.146 137.622C432.793 141.245 434.851 144.126 437.32 146.266C439.79 148.407 442.671 149.477 445.964 149.477C448.599 149.477 451.48 147.831 454.608 144.538C457.901 141.08 461.194 136.47 464.487 130.707L480.047 148.489ZM519.977 46.9835C520.965 46.9835 522.364 47.2305 524.176 47.7244C525.987 48.2184 527.88 48.877 529.856 49.7002C531.996 50.3588 533.972 51.0997 535.783 51.923C537.759 52.5816 539.323 53.2402 540.476 53.8988L537.018 75.6323C536.03 75.1384 534.631 74.5621 532.82 73.9035C531.008 73.0803 529.115 72.3394 527.139 71.6808C525.328 70.8575 523.682 70.1989 522.2 69.705C520.718 69.211 519.812 68.9641 519.483 68.9641C516.849 68.9641 515.202 70.6929 514.544 74.1505C513.885 77.4435 513.556 81.2304 513.556 85.5112V167.753H490.587V85.5112C490.587 72.8333 492.728 63.2837 497.009 56.8624C501.289 50.2765 508.946 46.9835 519.977 46.9835ZM618.434 90.9446C618.434 91.7679 618.434 92.5088 618.434 93.1674C618.599 93.826 618.681 94.5669 618.681 95.3901V99.5886C618.846 102.388 618.928 105.269 618.928 108.233C619.093 111.196 619.175 113.995 619.175 116.63C619.175 124.368 618.681 131.53 617.693 138.116C616.87 144.702 614.976 150.383 612.013 155.157C609.214 159.932 605.18 163.719 599.911 166.518C594.642 169.317 587.645 170.717 578.918 170.717C574.967 170.717 570.933 169.976 566.817 168.494C562.701 167.012 558.996 164.707 555.703 161.579C552.41 158.45 549.693 154.499 547.553 149.724C545.413 144.949 544.26 139.269 544.095 132.683V131.201C544.095 122.31 545.742 115.23 549.035 109.961C552.328 104.528 556.362 100.33 561.136 97.3659C565.911 94.4022 571.098 92.4264 576.696 91.4386C582.294 90.4507 587.398 89.9567 592.008 89.9567H595.466C594.972 82.2183 593.408 76.4556 590.773 72.6687C588.139 68.7171 584.681 66.7413 580.4 66.7413C577.601 66.7413 574.473 68.2232 571.015 71.1868C567.722 74.1505 564.347 78.1844 560.889 83.2885L544.342 68.4701C548.952 61.061 554.551 55.2983 561.136 51.1821C567.887 46.9012 574.226 44.7608 580.153 44.7608C592.008 44.7608 601.228 48.4654 607.814 55.8745C614.565 63.2837 618.105 74.9737 618.434 90.9446ZM593.737 111.937C590.773 111.937 587.727 112.267 584.599 112.925C581.635 113.419 578.836 114.407 576.202 115.889C573.732 117.371 571.592 119.346 569.78 121.816C568.134 124.286 567.228 127.497 567.064 131.448V132.189C567.393 137.952 568.793 142.15 571.262 144.785C573.897 147.419 576.449 148.736 578.918 148.736C582.705 148.736 585.751 147.913 588.056 146.266C590.362 144.455 592.09 142.233 593.243 139.598C594.395 136.799 595.136 133.671 595.466 130.213C595.795 126.756 595.96 123.298 595.96 119.84V111.937H593.737ZM628.251 168V152.441L671.718 69.952H632.203V48.2184H700.861V64.0246L657.641 146.019H701.108V168H628.251ZM794.994 48.2184V108.974L795.241 155.898C795.241 165.119 794.665 173.598 793.512 181.337C792.525 189.075 790.466 195.661 787.338 201.094C784.374 206.692 780.094 211.056 774.496 214.184C769.062 217.312 761.982 218.876 753.256 218.876C744.694 218.876 736.709 215.995 729.3 210.232C722.055 204.634 716.539 196.978 712.752 187.264L731.522 173.433C734.486 180.678 737.861 186.358 741.648 190.474C745.435 194.755 749.304 196.896 753.256 196.896C759.842 196.896 764.452 194.097 767.086 188.499C769.721 183.065 771.367 175.574 772.026 166.024C766.263 169.646 759.924 171.458 753.009 171.458C746.423 171.458 740.496 169.976 735.227 167.012C729.958 163.884 725.513 159.521 721.89 153.923C718.268 148.325 715.469 141.739 713.493 134.165C711.518 126.591 710.53 118.194 710.53 108.974V48.2184L733.498 47.7244V109.221C733.498 114.819 733.91 120.087 734.733 125.027C735.556 129.966 736.709 134.247 738.191 137.869C739.837 141.492 741.895 144.373 744.365 146.513C746.835 148.489 749.716 149.477 753.009 149.477C756.137 149.477 758.854 148.407 761.159 146.266C763.629 143.961 765.605 140.998 767.086 137.375C768.733 133.589 769.968 129.225 770.791 124.286C771.779 119.346 772.355 114.16 772.52 108.727V48.2184H794.994Z" fill="white"/>
</svg>
